<svg width="153" height="32" viewBox="0 0 153 32" fill="none" xmlns="http://www.w3.org/2000/svg">
<path d="M19.64 2H27.08V31.4L8.32 15.76V30H0.88V0.599999L19.64 16.24V2ZM42.1531 30.4C39.8865 30.4 37.9265 30.0133 36.2731 29.24C34.6465 28.44 33.3931 27.3333 32.5131 25.92C31.6331 24.48 31.1931 22.7733 31.1931 20.8C31.1931 18.8 31.6198 17.0933 32.4731 15.68C33.3265 14.24 34.5531 13.1333 36.1531 12.36C37.7531 11.5867 39.6731 11.2 41.9131 11.2C44.1531 11.2 46.0331 11.56 47.5531 12.28C49.0731 13 50.2331 14.0533 51.0331 15.44C51.8331 16.8 52.2331 18.48 52.2331 20.48C52.2331 20.8 52.2198 21.12 52.1931 21.44C52.1931 21.7333 52.1798 22 52.1531 22.24H34.9931V18.68H45.8331L44.3531 20.52C44.4865 20.3067 44.6065 20.0667 44.7131 19.8C44.8198 19.5333 44.8731 19.3067 44.8731 19.12C44.8731 18.3733 44.7398 17.7467 44.4731 17.24C44.2331 16.7067 43.8731 16.3067 43.3931 16.04C42.9398 15.7467 42.3931 15.6 41.7531 15.6C40.9531 15.6 40.2865 15.7867 39.7531 16.16C39.2198 16.5333 38.8198 17.1067 38.5531 17.88C38.2865 18.6267 38.1531 19.5867 38.1531 20.76C38.1265 21.8 38.2598 22.68 38.5531 23.4C38.8465 24.12 39.2731 24.68 39.8331 25.08C40.3931 25.4533 41.0865 25.64 41.9131 25.64C42.9265 25.64 43.7798 25.4667 44.4731 25.12C45.1931 24.7467 45.7531 24.2133 46.1531 23.52L52.3931 24.76C51.4065 26.6533 50.0598 28.0667 48.3531 29C46.6731 29.9333 44.6065 30.4 42.1531 30.4ZM67.56 11.6H75.2L67.92 20.56L75.6 30H67.96L64.44 25.12L60.96 30H53L60.8 20.56L53.4 11.6H61.36L64.44 15.96L67.56 11.6ZM75.8172 11.6H89.0572V17.2H75.8172V11.6ZM79.1372 5.2H85.7372V30H79.1372V5.2ZM89.33 8.92V2H112.77V8.92H104.93V30H97.17V8.92H89.33ZM121.059 30.4C118.793 30.4 116.833 30.0133 115.179 29.24C113.553 28.44 112.299 27.3333 111.419 25.92C110.539 24.48 110.099 22.7733 110.099 20.8C110.099 18.8 110.526 17.0933 111.379 15.68C112.233 14.24 113.459 13.1333 115.059 12.36C116.659 11.5867 118.579 11.2 120.819 11.2C123.059 11.2 124.939 11.56 126.459 12.28C127.979 13 129.139 14.0533 129.939 15.44C130.739 16.8 131.139 18.48 131.139 20.48C131.139 20.8 131.126 21.12 131.099 21.44C131.099 21.7333 131.086 22 131.059 22.24H113.899V18.68H124.739L123.259 20.52C123.393 20.3067 123.513 20.0667 123.619 19.8C123.726 19.5333 123.779 19.3067 123.779 19.12C123.779 18.3733 123.646 17.7467 123.379 17.24C123.139 16.7067 122.779 16.3067 122.299 16.04C121.846 15.7467 121.299 15.6 120.659 15.6C119.859 15.6 119.193 15.7867 118.659 16.16C118.126 16.5333 117.726 17.1067 117.459 17.88C117.193 18.6267 117.059 19.5867 117.059 20.76C117.033 21.8 117.166 22.68 117.459 23.4C117.753 24.12 118.179 24.68 118.739 25.08C119.299 25.4533 119.993 25.64 120.819 25.64C121.833 25.64 122.686 25.4667 123.379 25.12C124.099 24.7467 124.659 24.2133 125.059 23.52L131.299 24.76C130.313 26.6533 128.966 28.0667 127.259 29C125.579 29.9333 123.513 30.4 121.059 30.4ZM140.332 24.24C140.332 24.64 140.426 24.9867 140.612 25.28C140.826 25.5467 141.106 25.76 141.452 25.92C141.799 26.0533 142.172 26.12 142.572 26.12C143.159 26.12 143.719 26 144.252 25.76C144.786 25.4933 145.212 25.0933 145.532 24.56C145.879 24 146.052 23.3067 146.052 22.48L146.692 24.88C146.692 26.0533 146.386 27.0533 145.772 27.88C145.186 28.7067 144.372 29.3333 143.332 29.76C142.319 30.1867 141.199 30.4 139.972 30.4C138.799 30.4 137.706 30.1867 136.692 29.76C135.706 29.3067 134.906 28.6533 134.292 27.8C133.679 26.92 133.372 25.8533 133.372 24.6C133.372 22.84 133.986 21.4533 135.212 20.44C136.466 19.4267 138.266 18.92 140.612 18.92C141.626 18.92 142.572 19.0133 143.452 19.2C144.359 19.3867 145.146 19.64 145.812 19.96C146.506 20.2533 147.026 20.5867 147.372 20.96V23.88C146.839 23.4267 146.172 23.08 145.372 22.84C144.572 22.6 143.732 22.48 142.852 22.48C142.239 22.48 141.746 22.5467 141.372 22.68C140.999 22.8133 140.732 23.0133 140.572 23.28C140.412 23.52 140.332 23.84 140.332 24.24ZM136.972 17.64L134.772 13.12C135.946 12.6133 137.292 12.1467 138.812 11.72C140.359 11.2667 141.999 11.04 143.732 11.04C145.412 11.04 146.919 11.28 148.252 11.76C149.612 12.2133 150.679 12.8933 151.452 13.8C152.252 14.7067 152.652 15.8133 152.652 17.12V30H146.052V18.76C146.052 18.36 145.986 18 145.852 17.68C145.746 17.36 145.559 17.0933 145.292 16.88C145.026 16.64 144.679 16.4667 144.252 16.36C143.826 16.2267 143.332 16.16 142.772 16.16C141.999 16.16 141.199 16.2533 140.372 16.44C139.572 16.6267 138.866 16.84 138.252 17.08C137.639 17.32 137.212 17.5067 136.972 17.64Z" fill="#1E1E1E"/>
</svg>
